/* XPM */

/*
* Glide64 - Glide video plugin for Nintendo 64 emulators.
* Copyright (c) 2002  Dave2001
*
* This program is free software; you can redistribute it and/or modify
* it under the terms of the GNU General Public License as published by
* the Free Software Foundation; either version 2 of the License, or
* any later version.
*
* This program is distributed in the hope that it will be useful,
* but WITHOUT ANY WARRANTY; without even the implied warranty of
* MERCHANTABILITY or FITNESS FOR A PARTICULAR PURPOSE.  See the
* GNU General Public License for more details.
*
* You should have received a copy of the GNU General Public
* Licence along with this program; if not, write to the Free
* Software Foundation, Inc., 51 Franklin Street, Fifth Floor, 
* Boston, MA  02110-1301, USA
*/

static const char * messagebox_info_xpm[] = {
"32 32 564 2",
"  	c None",
". 	c #DDE8F2",
"+ 	c #E0E6EB",
"@ 	c #EBEBED",
"# 	c #EDEDED",
"$ 	c #EEEEED",
"% 	c #EEEDEE",
"& 	c #EAEBEE",
"* 	c #E4EBF1",
"= 	c #E1EBF5",
"- 	c #D7DDE5",
"; 	c #E4E6EB",
"> 	c #CDD3DD",
", 	c #D0D6DE",
"' 	c #F5F4F2",
") 	c #F5F3F0",
"! 	c #F7F6F5",
"~ 	c #FDFCFC",
"{ 	c #FFFFFF",
"] 	c #FEFFFF",
"^ 	c #F9F9F9",
"/ 	c #F8F8F7",
"( 	c #F4FAFD",
"_ 	c #B3BDCC",
": 	c #EAEFF4",
"< 	c #E2E6EA",
"[ 	c #FBF9F5",
"} 	c #FAF8F6",
"| 	c #F6F8F8",
"1 	c #FBFCFC",
"2 	c #BBC2CA",
"3 	c #AAAFBD",
"4 	c #F4F7F6",
"5 	c #FBFDFF",
"6 	c #F6F9FD",
"7 	c #F9FAFC",
"8 	c #F1F9FE",
"9 	c #B1BDCF",
"0 	c #D9E3ED",
"a 	c #E8E7E7",
"b 	c #F0F0EE",
"c 	c #F4F5F6",
"d 	c #FDFEFE",
"e 	c #3D5278",
"f 	c #00003B",
"g 	c #00003D",
"h 	c #021D57",
"i 	c #F7FAFA",
"j 	c #FCFFFF",
"k 	c #F1F7FD",
"l 	c #F2F6F9",
"m 	c #FBFFFF",
"n 	c #BCCADB",
"o 	c #CED4DE",
"p 	c #D8E2EB",
"q 	c #E6E5E2",
"r 	c #E9EAEB",
"s 	c #F3F8FA",
"t 	c #C9D1DF",
"u 	c #000048",
"v 	c #001B84",
"w 	c #001A8D",
"x 	c #000063",
"y 	c #708AB4",
"z 	c #FAFFFF",
"A 	c #F4F9FE",
"B 	c #E7EDF6",
"C 	c #F8FBFF",
"D 	c #CBDDEF",
"E 	c #BAC2D0",
"F 	c #D7E2EC",
"G 	c #E3E3E2",
"H 	c #E6E8EB",
"I 	c #F1F4F9",
"J 	c #FAFDFF",
"K 	c #F5FAFF",
"L 	c #F6FCFF",
"M 	c #E3EAF3",
"N 	c #000862",
"O 	c #002F9C",
"P 	c #4E86DF",
"Q 	c #002FA3",
"R 	c #99AED4",
"S 	c #F1F9FF",
"T 	c #ECF6FF",
"U 	c #F1FAFF",
"V 	c #EFF7FD",
"W 	c #EEF6FC",
"X 	c #AEC3DA",
"Y 	c #BFC3CF",
"Z 	c #E2EAF3",
"` 	c #DCDEDE",
" .	c #E2E5E9",
"..	c #EDF2F8",
"+.	c #F5FBFF",
"@.	c #F2F9FF",
"#.	c #F4FAFF",
"$.	c #F3F9FF",
"%.	c #F6FDFF",
"&.	c #859DC7",
"*.	c #1A49AA",
"=.	c #5185E3",
"-.	c #6387C9",
";.	c #F4FCFF",
">.	c #EDF7FF",
",.	c #EAF5FF",
"'.	c #E9F3FF",
").	c #E9F5FF",
"!.	c #F8FEFF",
"~.	c #E9F4FC",
"{.	c #DDE9F5",
"].	c #EBF8FF",
"^.	c #8399B5",
"/.	c #CBD4DE",
"(.	c #DCDEE0",
"_.	c #FDFFFF",
":.	c #F2F8FF",
"<.	c #F0F7FF",
"[.	c #F0F9FF",
"}.	c #F3FCFF",
"|.	c #F7FFFF",
"1.	c #EAF6FF",
"2.	c #E8F4FF",
"3.	c #E6F4FF",
"4.	c #E4F1FF",
"5.	c #E1F2FF",
"6.	c #F4FFFF",
"7.	c #DCEBF9",
"8.	c #DEEAF6",
"9.	c #C5DBEC",
"0.	c #7987A2",
"a.	c #D4D7DA",
"b.	c #DBE1E8",
"c.	c #ECF3FB",
"d.	c #EFF8FF",
"e.	c #EDF8FF",
"f.	c #EEF7FF",
"g.	c #F9FFFF",
"h.	c #F6FFFF",
"i.	c #F5FEFF",
"j.	c #E5F1FB",
"k.	c #E9F7FF",
"l.	c #E5F3FF",
"m.	c #E4F2FF",
"n.	c #E3F1FF",
"o.	c #E1F0FF",
"p.	c #E0EFFF",
"q.	c #DFF0FF",
"r.	c #E9F9FF",
"s.	c #D2E1F3",
"t.	c #E1F2FE",
"u.	c #617698",
"v.	c #C2D2DF",
"w.	c #D2D8DD",
"x.	c #DFE5EE",
"y.	c #F2FBFF",
"z.	c #F1FBFF",
"A.	c #EBF4FF",
"B.	c #EBF6FF",
"C.	c #EAF3FF",
"D.	c #EBF7FF",
"E.	c #EFFBFF",
"F.	c #6981A7",
"G.	c #1E376F",
"H.	c #2B4984",
"I.	c #314F85",
"J.	c #13336D",
"K.	c #00114F",
"L.	c #889CBD",
"M.	c #F5FFFF",
"N.	c #E0F0FF",
"O.	c #DDEFFF",
"P.	c #DEEFFF",
"Q.	c #DCEEFF",
"R.	c #DAEBFF",
"S.	c #E1F3FF",
"T.	c #EDFEFF",
"U.	c #D3E5F9",
"V.	c #D2E2F2",
"W.	c #ACC7E1",
"X.	c #6B7895",
"Y.	c #B8C4CF",
"Z.	c #CAD3DA",
"`.	c #DEE8F3",
" +	c #EEFAFF",
".+	c #E6F2FF",
"++	c #E7F2FF",
"@+	c #E7F4FF",
"#+	c #E7F5FF",
"$+	c #879FC8",
"%+	c #042C81",
"&+	c #000B7C",
"*+	c #001C8A",
"=+	c #00208D",
"-+	c #000A6D",
";+	c #7A95C0",
">+	c #DEF0FF",
",+	c #DBEDFF",
"'+	c #DAEDFF",
")+	c #D8EDFF",
"!+	c #D8EAFF",
"~+	c #D7EBFF",
"{+	c #E4F8FF",
"]+	c #D5E8FA",
"^+	c #C7D8EB",
"/+	c #BBD2E7",
"(+	c #3D4E72",
"_+	c #B8C2CD",
":+	c #C3CDD7",
"<+	c #DAE6F3",
"[+	c #EAF7FF",
"}+	c #E2EFFF",
"|+	c #E2F2FF",
"1+	c #E4F4FF",
"2+	c #1F4793",
"3+	c #002692",
"4+	c #00309F",
"5+	c #001984",
"6+	c #7F9CC9",
"7+	c #F2FFFF",
"8+	c #DBEEFF",
"9+	c #D7ECFF",
"0+	c #D5EBFF",
"a+	c #D4EBFF",
"b+	c #D4E9FF",
"c+	c #D3E9FF",
"d+	c #DAF1FF",
"e+	c #CEE4F9",
"f+	c #BDD3E6",
"g+	c #BDD4E6",
"h+	c #20345D",
"i+	c #B8C4CE",
"j+	c #BEC9D6",
"k+	c #D6E4F2",
"l+	c #E5F4FF",
"m+	c #DFEFFF",
"n+	c #E3F4FF",
"o+	c #4D6CA2",
"p+	c #001C87",
"q+	c #00309D",
"r+	c #001A82",
"s+	c #7C9AC8",
"t+	c #EDFFFF",
"u+	c #D5EAFF",
"v+	c #D4E8FF",
"w+	c #D1E9FF",
"x+	c #D2E9FF",
"y+	c #D1E7FF",
"z+	c #D6EDFF",
"A+	c #CAE1F9",
"B+	c #B8CEE4",
"C+	c #BDD3E7",
"D+	c #1E315A",
"E+	c #B4C2CD",
"F+	c #BCC8D6",
"G+	c #D1E1F1",
"H+	c #DDF0FF",
"I+	c #D9EDFF",
"J+	c #DCF0FF",
"K+	c #EBFBFF",
"L+	c #43639B",
"M+	c #001D85",
"N+	c #00309C",
"O+	c #7B9AC8",
"P+	c #E9FEFF",
"Q+	c #D3EBFF",
"R+	c #CFE8FF",
"S+	c #D0E8FF",
"T+	c #D0E6FF",
"U+	c #CDE8FF",
"V+	c #CEE7FF",
"W+	c #CDE7FF",
"X+	c #D1EBFF",
"Y+	c #C7E0F9",
"Z+	c #B6CEE4",
"`+	c #B7CFE6",
" @	c #1C3059",
".@	c #A8B8CA",
"+@	c #B8C6D3",
"@@	c #CCDBEE",
"#@	c #DAECFF",
"$@	c #D8ECFF",
"%@	c #D9EFFF",
"&@	c #E6FAFF",
"*@	c #42619B",
"=@	c #001C86",
"-@	c #7998C8",
";@	c #E6FCFF",
">@	c #D0E9FF",
",@	c #CBE6FF",
"'@	c #CAE4FF",
")@	c #CCE6FF",
"!@	c #CBE5FF",
"~@	c #CAE5FF",
"{@	c #C1DAF5",
"]@	c #B5CCE3",
"^@	c #A9C6E2",
"/@	c #1B3058",
"(@	c #A5BCD2",
"_@	c #B2BFCD",
":@	c #BED0E2",
"<@	c #D2E9FC",
"[@	c #D7EEFF",
"}@	c #D2EAFF",
"|@	c #D3EAFF",
"1@	c #D2E7FF",
"2@	c #D5EDFF",
"3@	c #E1F8FF",
"4@	c #41629B",
"5@	c #001D86",
"6@	c #001B82",
"7@	c #7797C8",
"8@	c #E3FBFF",
"9@	c #CAE3FF",
"0@	c #C9E4FF",
"a@	c #C7E4FF",
"b@	c #C8E2FF",
"c@	c #C7E3FF",
"d@	c #C9E5FF",
"e@	c #C5E2FF",
"f@	c #B4CFEB",
"g@	c #B0C6DE",
"h@	c #93B6D8",
"i@	c #1B305A",
"j@	c #BAC7D7",
"k@	c #AABCC9",
"l@	c #B1C4D5",
"m@	c #C7DAF1",
"n@	c #D4ECFF",
"o@	c #CEE8FF",
"p@	c #CFE7FF",
"q@	c #D2EBFF",
"r@	c #DEF6FF",
"s@	c #40619B",
"t@	c #001C82",
"u@	c #7596C8",
"v@	c #DFF8FF",
"w@	c #C6E3FF",
"x@	c #C4E1FF",
"y@	c #C5E3FF",
"z@	c #C4E0FF",
"A@	c #C6E4FF",
"B@	c #B9D8F6",
"C@	c #ABC5E0",
"D@	c #ABC6DE",
"E@	c #516D95",
"F@	c #1A2C57",
"G@	c #A7C0D6",
"H@	c #A9BACA",
"I@	c #B4C9DF",
"J@	c #C9E0FB",
"K@	c #CDE6FF",
"L@	c #CAE6FF",
"M@	c #CEE9FF",
"N@	c #DCF4FF",
"O@	c #3E619B",
"P@	c #001C81",
"Q@	c #7497CA",
"R@	c #DAF6FF",
"S@	c #C3E2FF",
"T@	c #C2E1FF",
"U@	c #C1E1FF",
"V@	c #C0E0FF",
"W@	c #C0E2FF",
"X@	c #BBDDFD",
"Y@	c #ACC9E7",
"Z@	c #A3BFD7",
"`@	c #92B5D4",
" #	c #203B69",
".#	c #3B4A6C",
"+#	c #99AFC9",
"@#	c #A7BACA",
"##	c #A5B8CC",
"$#	c #B3CCE3",
"%#	c #C6E1FD",
"&#	c #CDE9FF",
"*#	c #C8E4FF",
"=#	c #CDEBFF",
"-#	c #DFFBFF",
";#	c #42649F",
">#	c #002A97",
",#	c #00187E",
"'#	c #698DC1",
")#	c #E1FFFF",
"!#	c #C4E4FF",
"~#	c #C0E1FF",
"{#	c #BCDEFF",
"]#	c #BDDEFF",
"^#	c #BFE1FF",
"/#	c #B9DCFD",
"(#	c #AAC7E8",
"_#	c #9EB9D5",
":#	c #9EBDD8",
"<#	c #567CA7",
"[#	c #0B1D4A",
"}#	c #83A2BF",
"|#	c #9CB0C2",
"1#	c #A2B7CC",
"2#	c #B1CAE3",
"3#	c #C2DEFA",
"4#	c #C8E7FF",
"5#	c #C7E5FF",
"6#	c #CAE8FF",
"7#	c #BAD9F4",
"8#	c #183E89",
"9#	c #002E9A",
"0#	c #0A3EA6",
"a#	c #033099",
"b#	c #1C438D",
"c#	c #B6D8F1",
"d#	c #C3E5FF",
"e#	c #BFDFFF",
"f#	c #BBE0FF",
"g#	c #BCDFFF",
"h#	c #B6DAFE",
"i#	c #A7C7E8",
"j#	c #99B7D4",
"k#	c #96B3CD",
"l#	c #739AC0",
"m#	c #0E2452",
"n#	c #88A8C5",
"o#	c #99AEC2",
"p#	c #9DB4CE",
"q#	c #ABC6E1",
"r#	c #B9D7F6",
"s#	c #D3F3FF",
"t#	c #7C9FCF",
"u#	c #000766",
"v#	c #00279A",
"w#	c #1B50BE",
"x#	c #2B5FCC",
"y#	c #285DCC",
"z#	c #1A4EBD",
"A#	c #02308F",
"B#	c #80A8DA",
"C#	c #C3E7FF",
"D#	c #B8DCFF",
"E#	c #AFD3F8",
"F#	c #A2C3E6",
"G#	c #95B5D3",
"H#	c #94B2CD",
"I#	c #78A0C6",
"J#	c #223F6D",
"K#	c #1B2C54",
"L#	c #7A9CBD",
"M#	c #98B0C5",
"N#	c #98B1C8",
"O#	c #9EBAD6",
"P#	c #A9C7E6",
"Q#	c #B3D4F6",
"R#	c #BEE1FF",
"S#	c #B0D2F8",
"T#	c #9DC1F1",
"U#	c #B1D8FF",
"V#	c #A9D0FA",
"W#	c #A4CAF6",
"X#	c #A3CAF6",
"Y#	c #BDE5FF",
"Z#	c #A7D0FF",
"`#	c #A7CDF7",
" $	c #B1D5F8",
".$	c #A1C5E8",
"+$	c #98BADA",
"@$	c #91B1CF",
"#$	c #92B0CE",
"$$	c #6F95BE",
"%$	c #244373",
"&$	c #11254D",
"*$	c #6487AC",
"=$	c #8CADC6",
"-$	c #95ADC3",
";$	c #94AECA",
">$	c #98B5D3",
",$	c #9BBAD8",
"'$	c #A5C5E5",
")$	c #B1D5F5",
"!$	c #B6D9F9",
"~$	c #B8DBFA",
"{$	c #BEE3FF",
"]$	c #C0E7FF",
"^$	c #BBE2FF",
"/$	c #B0D5F8",
"($	c #9EC1E4",
"_$	c #93B5D7",
":$	c #8FADCC",
"<$	c #8EADCA",
"[$	c #83A9CB",
"}$	c #567FAC",
"|$	c #102754",
"1$	c #182A52",
"2$	c #627595",
"3$	c #678CB1",
"4$	c #85A2BF",
"5$	c #8DAAC4",
"6$	c #8BAAC4",
"7$	c #85A6C7",
"8$	c #86AACA",
"9$	c #89ABCC",
"0$	c #91B2D3",
"a$	c #9FC2E7",
"b$	c #ADD4FC",
"c$	c #A6CDF3",
"d$	c #96B8DB",
"e$	c #90AFCF",
"f$	c #89ACCB",
"g$	c #80A5C5",
"h$	c #608AB4",
"i$	c #264371",
"j$	c #0C214F",
"k$	c #283960",
"l$	c #4E668C",
"m$	c #3E5D87",
"n$	c #5F7EA3",
"o$	c #799ABC",
"p$	c #7B9BBC",
"q$	c #7F9FBF",
"r$	c #81A0C0",
"s$	c #8AADCD",
"t$	c #9FC6EE",
"u$	c #9CC3EC",
"v$	c #8AAFD4",
"w$	c #6C92B9",
"x$	c #3F628E",
"y$	c #284B7B",
"z$	c #071945",
"A$	c #23345C",
"B$	c #5E6D8C",
"C$	c #455A7E",
"D$	c #273E67",
"E$	c #314A74",
"F$	c #7190B3",
"G$	c #89AACC",
"H$	c #99C3EC",
"I$	c #A2CBF4",
"J$	c #80A5CE",
"K$	c #193563",
"L$	c #15264F",
"M$	c #384769",
"N$	c #495677",
"O$	c #35507E",
"P$	c #8CB2D3",
"Q$	c #94BEE6",
"R$	c #A7D2FB",
"S$	c #7CA8D7",
"T$	c #243860",
"U$	c #34476C",
"V$	c #6591BE",
"W$	c #91BAE0",
"X$	c #A5CFF9",
"Y$	c #71A1D5",
"Z$	c #2E4268",
"`$	c #2D426A",
" %	c #5C8AB9",
".%	c #A1CCF3",
"+%	c #6EA1D6",
"@%	c #283C64",
"#%	c #506385",
"$%	c #70A2D3",
"%%	c #72AADF",
"&%	c #213863",
"*%	c #7686A0",
"=%	c #3C6395",
"-%	c #2F436A",
";%	c #8A94AA",
"                    . + @ # $ $ % & * = - ;                     ",
"              > , ' ) ! ~ { { { { ] ^ / { ( _                   ",
"          : < [ } | 1 { { { 2 3 4 { { 5 6 7 { 8 9               ",
"        0 a b c d { { { { e f g h i { { { j k l m n o           ",
"      p q r s { { { { { t u v w x y { z { { { A B C D E         ",
"    F G H I { { J K L { M N O P Q R { S T U { { V = W X Y       ",
"  Z `  ...{ { +.@.#.$.%.{ &.*.=.-.z ;.>.,.'.).!.{ ~.{.].^.      ",
"  /.(.* _.{ :.<.S [.[.}.z { { |.{ |.1.2.2.3.4.5.6.{ 7.8.9.0.    ",
"  a.b.c._.d.e.f.>.e.[.g.h.g.] i.j.k.k.l.m.n.o.p.q.h.r.s.t.u.    ",
"v.w.x.y.z.A.B.C.'.D.E.F.G.H.I.J.K.L.M.n.N.O.P.Q.R.S.T.U.V.W.X.  ",
"Y.Z.`. +D..+++@+l.#+E.$+%+&+*+=+-+;+M.>+Q.,+'+)+!+~+{+]+^+/+(+  ",
"_+:+<+[+l.m.n.n.}+|+1+M.M.2+3+4+5+6+7+8+)+9+0+a+b+c+d+e+f+g+h+  ",
"i+j+k+l+o.N.m+m+P.O.O.n+6.o+p+q+r+s+t+9+u+v+w+w+x+y+z+A+B+C+D+  ",
"E+F+G+S.H+Q.Q.,+'+I+)+J+K+L+M+N+r+O+P+Q+R+S+T+U+V+W+X+Y+Z+`+ @  ",
".@+@@@H+8+#@$@9+~+a+0+%@&@*@=@N+r+-@;@>@V+,@'@)@!@~@U+{@]@^@/@  ",
"(@_@:@<@[@u+a+}@|@1@w+2@3@4@5@q+6@7@8@W+9@0@a@b@c@d@e@f@g@h@i@  ",
"j@k@l@m@n@|@R+S+o@p@W+q@r@s@5@N+t@u@v@d@w@x@y@z@y@A@B@C@D@E@F@  ",
"  G@H@I@J@w+U+K@L@!@'@M@N@O@M+N+P@Q@R@w@S@T@U@V@W@X@Y@Z@`@ #.#  ",
"  +#@###$#%#&#d@*#A@*#=#-#;#5+>#,#'#)#!#~#{#]#^#/#(#_#:#<#[#    ",
"    }#|#1#2#3#4#A@y@5#6#7#8#9#0#a#b#c#d#e#f#g#h#i#j#k#l#m#      ",
"      n#o#p#q#r#T@!#s#t#u#v#w#x#y#z#A#B#C#D#E#F#G#H#I#J#K#      ",
"        L#M#N#O#P#Q#R#S#T#U#V#W#X#Y#Z#`# $.$+$@$#$$$%$&$        ",
"          *$=$-$;$>$,$'$)$!$~${$]$^$/$($_$:$<$[$}$|$1$          ",
"            2$3$4$5$6$7$8$9$0$a$b$c$d$e$f$g$h$i$j$k$            ",
"                l$m$n$o$p$q$r$s$t$u$v$w$x$y$z$A$                ",
"                    B$C$D$E$F$G$H$I$J$K$L$M$                    ",
"                          N$O$P$Q$R$S$T$                        ",
"                            U$V$W$X$Y$Z$                        ",
"                              `$ %.%+%@%                        ",
"                                #%$%%%&%                        ",
"                                  *%=%-%                        ",
"                                      ;%                        "};
