/* XPM */

/*
* Glide64 - Glide video plugin for Nintendo 64 emulators.
* Copyright (c) 2002  Dave2001
*
* This program is free software; you can redistribute it and/or modify
* it under the terms of the GNU General Public License as published by
* the Free Software Foundation; either version 2 of the License, or
* any later version.
*
* This program is distributed in the hope that it will be useful,
* but WITHOUT ANY WARRANTY; without even the implied warranty of
* MERCHANTABILITY or FITNESS FOR A PARTICULAR PURPOSE.  See the
* GNU General Public License for more details.
*
* You should have received a copy of the GNU General Public
* Licence along with this program; if not, write to the Free
* Software Foundation, Inc., 51 Franklin Street, Fifth Floor, 
* Boston, MA  02110-1301, USA
*/

static const char * messagebox_quest_xpm[] = {
"32 32 493 2",
"  	c None",
". 	c #DAE3F4",
"+ 	c #D3DEF2",
"@ 	c #D2DDF1",
"# 	c #D4DFF2",
"$ 	c #DEE6F6",
"% 	c #D4DDEE",
"& 	c #D0DCEF",
"* 	c #D5E0F3",
"= 	c #E1E9F6",
"- 	c #EEF2FA",
"; 	c #F9FAFD",
"> 	c #FBFCFE",
", 	c #F6F7FC",
"' 	c #E9EEF9",
") 	c #DDE5F5",
"! 	c #D0DBEF",
"~ 	c #CAD5E8",
"{ 	c #C2C7D1",
"] 	c #D1DCF0",
"^ 	c #DEE6F5",
"/ 	c #F4F8FC",
"( 	c #FFFFFF",
"_ 	c #ECF1FA",
": 	c #D5DFF2",
"< 	c #C6D0E4",
"[ 	c #D5DDEE",
"} 	c #D6E0F3",
"| 	c #F5F7FC",
"1 	c #FDFFFF",
"2 	c #FCFFFF",
"3 	c #E8EEF8",
"4 	c #B6BAC2",
"5 	c #D4DDEF",
"6 	c #E0E7F6",
"7 	c #EDFFFF",
"8 	c #E5FDFF",
"9 	c #D1FBFF",
"0 	c #C3F6FF",
"a 	c #BBEFFF",
"b 	c #B5E8FF",
"c 	c #B1E4FF",
"d 	c #B7E6FF",
"e 	c #CDEBFF",
"f 	c #E8F6FF",
"g 	c #F8F9FD",
"h 	c #D3DDF1",
"i 	c #ADB2BD",
"j 	c #D3DDEE",
"k 	c #E0E8F6",
"l 	c #EDFCFF",
"m 	c #C6EFFF",
"n 	c #B4E9FF",
"o 	c #A6DDFF",
"p 	c #9BD1FF",
"q 	c #96C6FF",
"r 	c #8FBFFE",
"s 	c #8CBDFD",
"t 	c #8BBDFF",
"u 	c #87BBFF",
"v 	c #86BCFF",
"w 	c #8EC2FF",
"x 	c #AFD1FF",
"y 	c #F8FCFF",
"z 	c #FDFDFE",
"A 	c #A7ABB3",
"B 	c #D7E1F3",
"C 	c #D4EBFF",
"D 	c #9CD0FF",
"E 	c #97CBFF",
"F 	c #89B3F7",
"G 	c #AABFE9",
"H 	c #BEC6DD",
"I 	c #C0C7D7",
"J 	c #BFC9DF",
"K 	c #A9C1F0",
"L 	c #7CA9FC",
"M 	c #70A3FF",
"N 	c #6FA4FF",
"O 	c #7EAEFF",
"P 	c #D7E8FF",
"Q 	c #CDD8EC",
"R 	c #D0DBF0",
"S 	c #C3E1FF",
"T 	c #80B5FF",
"U 	c #81B4FF",
"V 	c #6EA2FF",
"W 	c #7EA1E6",
"X 	c #CBCED7",
"Y 	c #F5F3EE",
"Z 	c #FBF9F5",
"` 	c #FDFBF7",
" .	c #FCFBF7",
"..	c #FCFAF7",
"+.	c #F9F6F1",
"@.	c #D1D8E9",
"#.	c #739CF1",
"$.	c #5E92F8",
"%.	c #6093FA",
"&.	c #6194F6",
"*.	c #D2E2FE",
"=.	c #E2E9F7",
"-.	c #B3BDCF",
";.	c #D4DCED",
">.	c #D2E3FF",
",.	c #6EA3FF",
"'.	c #71A3FF",
").	c #6195FA",
"!.	c #5F8AE0",
"~.	c #C3C6CD",
"{.	c #FEFDFA",
"].	c #F1F5FC",
"^.	c #F6F8FB",
"/.	c #FDFBF6",
"(.	c #BECAE3",
"_.	c #5283E6",
":.	c #5386EC",
"<.	c #4F83EB",
"[.	c #6693EC",
"}.	c #EEF5FD",
"|.	c #FCFCFE",
"1.	c #8F9297",
"2.	c #F8FAFD",
"3.	c #F0F7FF",
"4.	c #74A3FD",
"5.	c #6295FC",
"6.	c #5C8FF4",
"7.	c #477BE4",
"8.	c #8C9FC6",
"9.	c #F7F5F0",
"0.	c #FCFDFE",
"a.	c #99B2E6",
"b.	c #4B77D2",
"c.	c #567FD1",
"d.	c #B9C7E4",
"e.	c #FFFEFC",
"f.	c #ECEDED",
"g.	c #6A8FDC",
"h.	c #4176DF",
"i.	c #4D7FE3",
"j.	c #4477E0",
"k.	c #8AABEB",
"l.	c #AEB8CA",
"m.	c #D9E2F4",
"n.	c #AEC9FB",
"o.	c #5287F1",
"p.	c #578AEE",
"q.	c #487CE3",
"r.	c #4876D2",
"s.	c #BEC2C9",
"t.	c #AEC2EB",
"u.	c #295FCA",
"v.	c #2F63CB",
"w.	c #2C60CB",
"x.	c #4370CA",
"y.	c #DDE2EC",
"z.	c #FDFCF9",
"A.	c #89A5DF",
"B.	c #386DD5",
"C.	c #4577DC",
"D.	c #4678DC",
"E.	c #4476D8",
"F.	c #D3DFF8",
"G.	c #CFD9EE",
"H.	c #E6ECF8",
"I.	c #F7FAFE",
"J.	c #6391EC",
"K.	c #4F82E8",
"L.	c #4C7EE3",
"M.	c #3F72D8",
"N.	c #3F6FCF",
"O.	c #7190CF",
"P.	c #8DA6DA",
"Q.	c #A3B9E7",
"R.	c #507DD4",
"S.	c #2D62CB",
"T.	c #3366CC",
"U.	c #3063CA",
"V.	c #C2CDE1",
"W.	c #95B0E4",
"X.	c #3367D0",
"Y.	c #3E72D6",
"Z.	c #4174D8",
"`.	c #376BD2",
" +	c #8EABE5",
".+	c #FEFEFF",
"++	c #888E98",
"@+	c #D1DDF1",
"#+	c #F3F6FC",
"$+	c #CBDBFA",
"%+	c #4679DF",
"&+	c #4A7CE0",
"*+	c #4476DB",
"=+	c #3B6DD3",
"-+	c #3568CE",
";+	c #2E63CC",
">+	c #2C61CB",
",+	c #2A60CA",
"'+	c #3064CB",
")+	c #2D63CD",
"!+	c #4C74C4",
"~+	c #E5E7EC",
"{+	c #FEFFFF",
"]+	c #7094DC",
"^+	c #2F63CD",
"/+	c #3B6DD2",
"(+	c #3E70D4",
"_+	c #3669CF",
":+	c #5C85D6",
"<+	c #F3F5FB",
"[+	c #DCE4F5",
"}+	c #A1A9B9",
"|+	c #D1DCF1",
"1+	c #FBFBFE",
"2+	c #9FB9EC",
"3+	c #3E72D8",
"4+	c #4476DA",
"5+	c #3E71D6",
"6+	c #386BD0",
"7+	c #3467CD",
"8+	c #2E64CD",
"9+	c #3A69C5",
"0+	c #B3BDD1",
"a+	c #FFFFFC",
"b+	c #D7E0F5",
"c+	c #3C6DCE",
"d+	c #3165CD",
"e+	c #386BD1",
"f+	c #376ACE",
"g+	c #4371CE",
"h+	c #DEE5F4",
"i+	c #E3EAF7",
"j+	c #ADB7C8",
"k+	c #FDFEFE",
"l+	c #89A7E4",
"m+	c #396CD2",
"n+	c #3F71D5",
"o+	c #3B6ED3",
"p+	c #2F64CD",
"q+	c #3968C5",
"r+	c #A2AEC4",
"s+	c #FBF9F6",
"t+	c #EDF1FB",
"u+	c #5F87D7",
"v+	c #3769CF",
"w+	c #396BCF",
"x+	c #3668CC",
"y+	c #3B6BCA",
"z+	c #D2DBEE",
"A+	c #E5ECF7",
"B+	c #AEB8C9",
"C+	c #81A0DF",
"D+	c #3C6ED2",
"E+	c #3A6CD1",
"F+	c #3669CE",
"G+	c #3968C6",
"H+	c #99A4BB",
"I+	c #F8F6F1",
"J+	c #658BD8",
"K+	c #2B60CA",
"L+	c #3467CC",
"M+	c #3769CE",
"N+	c #3466CA",
"O+	c #3969C8",
"P+	c #CDD7EB",
"Q+	c #FEFCF9",
"R+	c #E5EBF7",
"S+	c #AEB7C9",
"T+	c #FFFFFE",
"U+	c #8EA8DF",
"V+	c #3265CA",
"W+	c #3668CE",
"X+	c #2F63CC",
"Y+	c #778CB8",
"Z+	c #ECEAE4",
"`+	c #658CD9",
" @	c #2C60CA",
".@	c #3568CD",
"+@	c #3264C8",
"@@	c #3969C6",
"#@	c #D3DBEB",
"$@	c #E3E9F5",
"%@	c #F5F8FC",
"&@	c #A9BCE4",
"*@	c #3062C6",
"=@	c #3869CC",
"-@	c #386ACF",
";@	c #3266CC",
">@	c #3365C8",
",@	c #A5AEC1",
"'@	c #8DAAE3",
")@	c #285DCA",
"!@	c #3567CB",
"~@	c #2E60C5",
"{@	c #4973C7",
"]@	c #DFE4ED",
"^@	c #FBF9F7",
"/@	c #A5ADBF",
"(@	c #E9EEF8",
"_@	c #3666C6",
":@	c #3466C8",
"<@	c #3668CD",
"[@	c #3265CC",
"}@	c #3767C7",
"|@	c #B3BAC7",
"1@	c #6B91DA",
"2@	c #3466CB",
"3@	c #3465C8",
"4@	c #285CC1",
"5@	c #6689CE",
"6@	c #F1F1F1",
"7@	c #FAF9F7",
"8@	c #848C9A",
"9@	c #DCE5F4",
"0@	c #FBFAF9",
"a@	c #F4F4F4",
"b@	c #6589D0",
"c@	c #2B5EC3",
"d@	c #3566CA",
"e@	c #3567CA",
"f@	c #7C95CB",
"g@	c #ACC0E9",
"h@	c #AAC0EA",
"i@	c #507CD3",
"j@	c #2E62CB",
"k@	c #3465CA",
"l@	c #3263C5",
"m@	c #2B5CBF",
"n@	c #A3B6DC",
"o@	c #FBF9F4",
"p@	c #F5F6F6",
"q@	c #CFDAEF",
"r@	c #F9FAF9",
"s@	c #FBFAF6",
"t@	c #B1C1E1",
"u@	c #2F5FC2",
"v@	c #3263C6",
"w@	c #3567CC",
"x@	c #2C62CD",
"y@	c #2A5FCA",
"z@	c #3466CC",
"A@	c #3365CA",
"B@	c #3264C7",
"C@	c #2D5EC0",
"D@	c #4D76C6",
"E@	c #E3E6EB",
"F@	c #F5F5F3",
"G@	c #E8EDF6",
"H@	c #C0CBDF",
"I@	c #C8D3E6",
"J@	c #E9EEF7",
"K@	c #F9F8F6",
"L@	c #F0F1F1",
"M@	c #6688CE",
"N@	c #295CC0",
"O@	c #3364C6",
"P@	c #3465C9",
"Q@	c #6385C9",
"R@	c #B7C8E9",
"S@	c #8FA8DD",
"T@	c #3668CB",
"U@	c #3164CC",
"V@	c #3365C9",
"W@	c #3363C6",
"X@	c #2F60C2",
"Y@	c #2C5DBE",
"Z@	c #A8B9DC",
"`@	c #F7F5F1",
" #	c #F7F6F5",
".#	c #696E79",
"+#	c #D3DEF1",
"@#	c #FAF9F9",
"##	c #F6F6F4",
"$#	c #D5DBE8",
"%#	c #436EC4",
"&#	c #2A5CC0",
"*#	c #3364C8",
"=#	c #3366CB",
"-#	c #3164CD",
";#	c #476FC0",
">#	c #B9BBBF",
",#	c #FFFCF5",
"'#	c #8FA8D9",
")#	c #2E62CA",
"!#	c #3163C7",
"~#	c #3061C2",
"{#	c #2658BC",
"]#	c #7C98D0",
"^#	c #F0EFEE",
"/#	c #F4F3F2",
"(#	c #EAEEF6",
"_#	c #BDC8DC",
":#	c #E1E8F6",
"<#	c #F7F7F6",
"[#	c #F8F7F2",
"}#	c #C1CDE2",
"|#	c #436DC3",
"1#	c #285ABE",
"2#	c #3162C3",
"3#	c #5577BC",
"4#	c #C5C4C1",
"5#	c #F9F8F8",
"6#	c #BACAEA",
"7#	c #3063C7",
"8#	c #3262C4",
"9#	c #2E5FC0",
"0#	c #285ABC",
"a#	c #7190CD",
"b#	c #E9EAEC",
"c#	c #F2F2F1",
"d#	c #D2DDF0",
"e#	c #CCD7EA",
"f#	c #EDF1F7",
"g#	c #F5F5F4",
"h#	c #F5F4F0",
"i#	c #D1D8E5",
"j#	c #5D80C8",
"k#	c #285ABD",
"l#	c #2A5BBF",
"m#	c #2F60C3",
"n#	c #3866C2",
"o#	c #9DAAC5",
"p#	c #EFEEEC",
"q#	c #E9EDF5",
"r#	c #6388D2",
"s#	c #2B5DC2",
"t#	c #2759BD",
"u#	c #3260BD",
"v#	c #89A1D1",
"w#	c #E8E9EA",
"x#	c #F1F1EF",
"y#	c #D9E2F3",
"z#	c #848C9B",
"A#	c #EFF1F6",
"B#	c #F4F4F3",
"C#	c #E6E7EA",
"D#	c #95ABD5",
"E#	c #4971C0",
"F#	c #2A5BBB",
"G#	c #275ABE",
"H#	c #3361C0",
"I#	c #5F81C8",
"J#	c #4973C6",
"K#	c #2356BC",
"L#	c #2758BB",
"M#	c #3462BE",
"N#	c #6787C9",
"O#	c #BCC7DE",
"P#	c #F2F0ED",
"Q#	c #F1F0EF",
"R#	c #DEE6F4",
"S#	c #A4AEC1",
"T#	c #CBD6EA",
"U#	c #E5EBF5",
"V#	c #F2F1F0",
"W#	c #F2F1ED",
"X#	c #DBDDE4",
"Y#	c #A2AFCB",
"Z#	c #728BBE",
"`#	c #5B7CBF",
" $	c #5278C2",
".$	c #597DC6",
"+$	c #718FCC",
"@$	c #96ABD5",
"#$	c #C4CEDF",
"$$	c #E9E9E9",
"%$	c #F4F4F6",
"&$	c #D8E1F2",
"*$	c #A2ACBF",
"=$	c #EEF0F5",
"-$	c #F5F4F2",
";$	c #F3F2F0",
">$	c #EFEEEB",
",$	c #E4E2DF",
"'$	c #E3E2DF",
")$	c #ECEBE8",
"!$	c #F1EFEC",
"~$	c #F2F2EF",
"{$	c #F1F2F3",
"]$	c #E3E9F4",
"^$	c #CCD7EB",
"/$	c #D6E0F2",
"($	c #E3E8F4",
"_$	c #EDEFF4",
":$	c #F3F4F4",
"<$	c #F3F2F1",
"[$	c #F1F1F2",
"}$	c #E9EDF4",
"|$	c #DDE5F3",
"1$	c #D0DBEE",
"2$	c #AFBBCD",
"3$	c #CAD5EA",
"4$	c #C0CCE0",
"                                                                ",
"                        . + @ @ @ @ # $                         ",
"                  % & * = - ; > > , ' ) ! ~ {                   ",
"                ] ^ / ( ( ( ( ( ( ( ( ( > _ : <                 ",
"            [ } | ( ( ( ( ( 1 1 2 2 1 ( ( ( ( 3 ! 4             ",
"          5 6 ( ( ( ( 7 8 9 0 a b c d e f ( ( ( g h i           ",
"        j k ( ( ( l m n o p q r s t u v w x y ( ( z @ A         ",
"        B ( ( ( C D E u F G H I I J K L M N O P ( ( | Q         ",
"      R ; ( ( S T U V W X Y Z `  ...+.@.#.$.%.&.*.( ( =.-.      ",
"    ;.k ( ( >.,.'.).!.~.{.( ( ].^.( ( /.(._.:.<.[.}.( |.! 1.    ",
"    R 2.( 3.4.5.6.7.8.9.( 0.a.b.c.d.e.( f.g.h.i.j.k.( ( = l.    ",
"    m.( ( n.o.p.q.r.s.+.( t.u.v.w.x.y.( z.A.B.C.D.E.F.( ; G.    ",
"  * H.( I.J.K.L.M.N.O.P.Q.R.S.T.T.U.V.( ( W.X.Y.Z.`. +( .+] ++  ",
"  @+#+( $+%+&+*+=+-+;+>+,+'+T.T.)+!+~+( {+]+^+/+(+_+:+<+( [+}+  ",
"  |+1+( 2+3+4+5+6+7+T.T.T.T.T.8+9+0+a+( b+c+d+e+/+f+g+h+( i+j+  ",
"  ] k+( l+m+n+o+_+T.T.T.T.T.p+q+r+s+( t+u+S.7+v+w+x+y+z+a+A+B+  ",
"  ] .+( C+-+D+E+F+T.T.T.T.d+G+H+I+( _ J+K+T.L+F+M+N+O+P+Q+R+S+  ",
"  ] z T+U+V+w+6+W+T.T.T.T.X+Y+Z+( _ `+ @T.T.L+.@x++@@@#@..$@j+  ",
"  |+%@a+&@*@=@-@W+T.T.T.;@>@,@e.( '@)@T.T.T.7+.@!@~@{@]@^@^ /@  ",
"  + (@{.;._@:@<@<@.@T.T.[@}@|@( ( 1@u.T.T.L+L+2@3@4@5@6@7@: 8@  ",
"    9@0@a@b@c@d@<@.@L+T.[@e@f@g@h@i@j@T.T.L+L+k@l@m@n@o@p@q@    ",
"    ! r@s@t@u@v@N+w@L+L+T.;@x@K+y@v.T.T.z@2@A@B@C@D@E@F@G@H@    ",
"    I@J@K@L@M@N@O@P@L+L+T.'+Q@R@S@T@U@z@z@V@W@X@Y@Z@`@ #: .#    ",
"      +#@###$#%#&#l@*#=#-#;#>#T+,#'#)#A@>@!#~#{#]#^#/#(#_#      ",
"        :#<#[#}#|#1#2#v@)#3#4#5#( 6#7#v@8#9#0#a#b#c#<#d#        ",
"        e#f#g#h#i#j#k#l#m#n#o#p#q#r#s#C@t#u#v#w#x# #y#z#        ",
"          q@A#B#h#C#D#E#F#G#H#I#J#K#L#M#N#O#P#Q###R#S#          ",
"            T#U#g#V#W#X#Y#Z#`# $.$+$@$#$$$P#V#%$&$*$            ",
"                : =$-$;$>$,$'$)$!$!$P#P#~${$]$!                 ",
"                  ^$/$($_$:$B#;$<$<$[$}$|$1$2$                  ",
"                        3$] ] ] ] ] ! 4$                        ",
"                                                                "};
