/* XPM */

/*
* Glide64 - Glide video plugin for Nintendo 64 emulators.
* Copyright (c) 2002  Dave2001
*
* This program is free software; you can redistribute it and/or modify
* it under the terms of the GNU General Public License as published by
* the Free Software Foundation; either version 2 of the License, or
* any later version.
*
* This program is distributed in the hope that it will be useful,
* but WITHOUT ANY WARRANTY; without even the implied warranty of
* MERCHANTABILITY or FITNESS FOR A PARTICULAR PURPOSE.  See the
* GNU General Public License for more details.
*
* You should have received a copy of the GNU General Public
* Licence along with this program; if not, write to the Free
* Software Foundation, Inc., 51 Franklin Street, Fifth Floor, 
* Boston, MA  02110-1301, USA
*/

static const char * messagebox_error_xpm[] = {
"32 32 203 2",
"  	c None",
". 	c #C60000",
"+ 	c #C50000",
"@ 	c #C30000",
"# 	c #C20000",
"$ 	c #C00000",
"% 	c #BF0000",
"& 	c #BD0000",
"* 	c #BB0000",
"= 	c #C90000",
"- 	c #C80000",
"; 	c #CE0000",
"> 	c #CD0000",
", 	c #CC0000",
"' 	c #CB0000",
") 	c #BA0000",
"! 	c #B80000",
"~ 	c #B70000",
"{ 	c #B50000",
"] 	c #CA0000",
"^ 	c #DC0000",
"/ 	c #EB1F1F",
"( 	c #F75C5C",
"_ 	c #F97B7B",
": 	c #F86B6B",
"< 	c #EA2E2E",
"[ 	c #D50000",
"} 	c #B40000",
"| 	c #B20000",
"1 	c #DF0000",
"2 	c #F75656",
"3 	c #FCAFAF",
"4 	c #FFEBEB",
"5 	c #FDCDCD",
"6 	c #F97474",
"7 	c #D70E0E",
"8 	c #AF0000",
"9 	c #AD0000",
"0 	c #D00000",
"a 	c #EF2828",
"b 	c #FCA4A4",
"c 	c #FFDCDC",
"d 	c #FECDCD",
"e 	c #EE4343",
"f 	c #AC0000",
"g 	c #AA0000",
"h 	c #D80000",
"i 	c #F33E3E",
"j 	c #FEBFBF",
"k 	c #FFCCCC",
"l 	c #F57171",
"m 	c #A90000",
"n 	c #A70000",
"o 	c #F33A3A",
"p 	c #FFBCBC",
"q 	c #FFCACA",
"r 	c #F67474",
"s 	c #A60000",
"t 	c #EE1515",
"u 	c #FEA0A0",
"v 	c #FFABAB",
"w 	c #FFFFFF",
"x 	c #FFE1E1",
"y 	c #ED3F3F",
"z 	c #A30000",
"A 	c #FC7373",
"B 	c #FF9A9A",
"C 	c #FFC1C1",
"D 	c #FFDBDB",
"E 	c #FE9090",
"F 	c #D00909",
"G 	c #A10000",
"H 	c #A00000",
"I 	c #F52222",
"J 	c #FF8A8A",
"K 	c #FFA0A0",
"L 	c #FFD4D4",
"M 	c #FA5555",
"N 	c #9E0000",
"O 	c #DE0000",
"P 	c #FB5353",
"Q 	c #FF7979",
"R 	c #FFCECE",
"S 	c #FE7272",
"T 	c #FB5555",
"U 	c #F72F2F",
"V 	c #F41818",
"W 	c #9C0000",
"X 	c #EA0606",
"Y 	c #FF6767",
"Z 	c #FFC5C5",
"` 	c #FFC7C7",
" .	c #FCACAC",
"..	c #F72929",
"+.	c #F20000",
"@.	c #E20000",
"#.	c #9B0000",
"$.	c #990000",
"%.	c #C40000",
"&.	c #F51616",
"*.	c #FF5656",
"=.	c #FFBEBE",
"-.	c #FA9F9F",
";.	c #9F0000",
">.	c #980000",
",.	c #F92222",
"'.	c #FF4545",
").	c #FFB8B8",
"!.	c #AE0000",
"~.	c #960000",
"{.	c #C10000",
"].	c #F91A1A",
"^.	c #FF3333",
"/.	c #FFB1B1",
"(.	c #940000",
"_.	c #F91111",
":.	c #FF2222",
"<.	c #FFADAD",
"[.	c #920000",
"}.	c #BE0000",
"|.	c #F90808",
"1.	c #FF1010",
"2.	c #FFA7A7",
"3.	c #F40000",
"4.	c #AB0000",
"5.	c #910000",
"6.	c #BC0000",
"7.	c #F90101",
"8.	c #FF0202",
"9.	c #FC9F9F",
"0.	c #F70000",
"a.	c #970000",
"b.	c #900000",
"c.	c #B90000",
"d.	c #EE0000",
"e.	c #FD0101",
"f.	c #FD9F9F",
"g.	c #FA0000",
"h.	c #E60000",
"i.	c #8F0000",
"j.	c #8E0000",
"k.	c #DA0000",
"l.	c #FE0000",
"m.	c #FE9F9F",
"n.	c #FF9F9F",
"o.	c #B60000",
"p.	c #FF0707",
"q.	c #FF3535",
"r.	c #FFA3A3",
"s.	c #8C0000",
"t.	c #B30000",
"u.	c #DD0909",
"v.	c #FF1212",
"w.	c #FF6C6C",
"x.	c #CD0909",
"y.	c #8B0000",
"z.	c #B10000",
"A.	c #B50202",
"B.	c #F51919",
"C.	c #FF1D1D",
"D.	c #FF7272",
"E.	c #F11919",
"F.	c #930202",
"G.	c #8A0000",
"H.	c #BC0707",
"I.	c #FA2626",
"J.	c #FF2828",
"K.	c #FF5151",
"L.	c #F82626",
"M.	c #A10707",
"N.	c #CA1212",
"O.	c #FA3030",
"P.	c #FF3434",
"Q.	c #F83030",
"R.	c #B71212",
"S.	c #890000",
"T.	c #A80000",
"U.	c #B70B0B",
"V.	c #F43636",
"W.	c #FF3F3F",
"X.	c #F13636",
"Y.	c #A10B0B",
"Z.	c #A50000",
"`.	c #A90404",
" +	c #D62929",
".+	c #FF4A4A",
"++	c #CD2929",
"@+	c #930404",
"#+	c #AA0A0A",
"$+	c #CE2929",
"%+	c #EC4545",
"&+	c #EA4545",
"*+	c #C72929",
"=+	c #9C0A0A",
"-+	c #9D0000",
";+	c #9A0000",
">+	c #9F0606",
",+	c #B11717",
"'+	c #AF1717",
")+	c #AE1717",
"!+	c #AD1717",
"~+	c #970606",
"{+	c #950000",
"                                                                ",
"                        . + @ # $ % & *                         ",
"                  = - . + . ; > , ' % ) ! ~ {                   ",
"                ] - , ^ / ( _ _ _ _ : < [ & } |                 ",
"            ' ] ' 1 2 3 4 4 4 4 4 4 4 4 5 6 7 { 8 9             ",
"          ' ] 0 a b c c c c c c c c c c c c d e ) f g           ",
"        ] ] h i j k k k k k k k k k k k k k k k l + m n         ",
"        ] 0 o p p p q p p p p p p p p p p q p p p r { s         ",
"      = ' t u v v k w x v v v v v v v v x w k v v v y m z       ",
"    = - 1 A B B C w w w D B B B B B B D w w w C B B E F G H     ",
"    - , I J J K w w w w w L J J J J L w w w w w K J J M g N     ",
"    . O P Q Q Q k w w w w w R Q Q R w w w w w k S T U V - W     ",
"  . + X Y Y Y Y Y Z w w w w w ` ` w w w w w  ...+.+.+.+.@.#.$.  ",
"  %.. &.*.*.*.*.*.*.=.w w w w w w w w w w -.+.+.+.+.+.+.+.;.>.  ",
"  @ ; ,.'.'.'.'.'.'.'.).w w w w w w w w -.+.+.+.+.+.+.+.+.!.~.  ",
"  {., ].^.^.^.^.^.^.^.^./.w w w w w w -.+.+.+.+.+.+.+.+.+.9 (.  ",
"  $ ' _.:.:.:.:.:.:.:.:.<.w w w w w w -.+.+.+.+.+.+.+.+.+.f [.  ",
"  }.] |.1.1.1.1.1.1.1.2.w w w w w w w w -.3.3.3.3.3.3.3.3.4.5.  ",
"  6.% 7.8.8.8.8.8.8.K w w w w w w w w w w 9.0.0.0.0.0.0.0.a.b.  ",
"  * c.d.e.e.e.e.e.u w w w w w f.f.w w w w w f.g.g.g.g.g.h.i.j.  ",
"    ! k.l.l.l.l.m.w w w w w n.l.l.n.w w w w w m.l.l.l.l.. j.    ",
"    o.}.p.p.p.q.w w w w w r.p.p.p.p.r.w w w w w q.p.p.p.W s.    ",
"    } t.u.v.v.v.w.w w w 2.v.v.v.v.v.v.2.w w w w.v.v.v.x.s.y.    ",
"      z.A.B.C.C.C.D.w v C.C.C.C.C.C.C.C.v w D.C.C.C.E.F.G.      ",
"        !.H.I.J.J.J.K.J.J.J.J.J.J.J.J.J.J.K.J.J.J.L.M.G.        ",
"        f 4.N.O.P.P.P.P.P.P.P.P.P.P.P.P.P.P.P.P.Q.R.G.S.        ",
"          m T.U.V.W.W.W.W.W.W.W.W.W.W.W.W.W.W.X.Y.G.S.          ",
"            s Z.`. +.+.+.+.+.+.+.+.+.+.+.+.+++@+G.S.            ",
"                G H #+$+%+*.*.*.*.*.*.&+*+=+s.G.                ",
"                  ;.-+#.;+>+,+'+)+!+~+i.j.s.G.                  ",
"                        $.a.{+(.[.5.i.j.                        ",
"                                                                "};
